<svg width="297" height="95" viewBox="0 0 297 95" fill="none" xmlns="http://www.w3.org/2000/svg">
<path d="M38.9583 21.6967C38.9583 32.4547 30.2372 41.1759 19.4792 41.1759C8.72112 41.1759 0 32.4547 0 21.6967C0 10.9386 8.72112 2.21753 19.4792 2.21753C30.2372 2.21753 38.9583 10.9386 38.9583 21.6967Z" fill="#151515"/>
<path d="M75.1346 32.1594C75.1346 37.3098 70.9594 41.4851 65.8089 41.4851C60.6585 41.4851 56.4832 37.3098 56.4832 32.1594C56.4832 27.009 60.6585 22.8337 65.8089 22.8337C70.9594 22.8337 75.1346 27.009 75.1346 32.1594Z" fill="#151515"/>
<path d="M79.2494 53.9556C79.2494 59.9487 74.391 64.807 68.3979 64.807C62.4048 64.807 57.5464 59.9487 57.5464 53.9556C57.5464 47.9625 62.4048 43.1041 68.3979 43.1041C74.391 43.1041 79.2494 47.9625 79.2494 53.9556Z" fill="#151515"/>
<path d="M65.8088 77.6658C65.8088 85.5251 59.4377 91.8962 51.5784 91.8962C43.7192 91.8962 37.3481 85.5251 37.3481 77.6658C37.3481 69.8066 43.7192 63.4355 51.5784 63.4355C59.4377 63.4355 65.8088 69.8066 65.8088 77.6658Z" fill="#151515"/>
<path d="M50.96 3.84619C57.5883 3.84625 62.9615 9.21963 62.9615 15.8479C62.9615 22.4761 57.5883 27.8493 50.96 27.8494C46.8704 27.8494 43.2584 25.8039 41.0916 22.6801C42.493 23.7078 44.2221 24.3151 46.0932 24.3151C50.7694 24.315 54.5603 20.5242 54.5603 15.8479C54.5603 11.1716 50.7694 7.38058 46.0932 7.38052C44.2221 7.38052 42.493 7.98783 41.0916 9.01547C43.2584 5.89172 46.8704 3.84619 50.96 3.84619Z" fill="#151515"/>
<path d="M57.5448 49.4246C56.8528 57.9201 49.4049 64.2461 40.9094 63.5541C32.4139 62.8621 26.0879 55.4142 26.7799 46.9187C27.2068 41.6769 30.2057 37.2611 34.4358 34.81C32.9723 36.499 32.0133 38.6516 31.8179 41.0498C31.3298 47.0435 35.7928 52.2981 41.7865 52.7863C47.7801 53.2745 53.0347 48.8114 53.523 42.8178C53.7183 40.4197 53.1205 38.1401 51.9496 36.2366C55.7272 39.3399 57.9718 44.1829 57.5448 49.4246Z" fill="#151515"/>
<path d="M78.9109 45.2276C82.9228 46.6993 87.3681 44.6401 88.8399 40.6282C90.3117 36.6163 88.2527 32.1709 84.2408 30.6991C81.766 29.7912 79.1264 30.2274 77.1214 31.6363C78.1974 31.326 79.3783 31.3423 80.5102 31.7575C83.3407 32.7959 84.7933 35.9323 83.755 38.7627C82.7166 41.5932 79.5803 43.0461 76.7499 42.0077C75.618 41.5925 74.7066 40.8414 74.0865 39.9089C74.7048 42.2801 76.4361 44.3197 78.9109 45.2276Z" fill="#151515"/>
<path d="M119.187 65.7989C117.315 65.7989 115.636 65.4809 114.152 64.8449C112.668 64.1736 111.485 63.2196 110.601 61.9829C109.753 60.7109 109.329 59.1739 109.329 57.3719C109.329 55.5699 109.753 54.0682 110.601 52.8669C111.485 51.6302 112.686 50.7116 114.205 50.1109C115.76 49.4749 117.527 49.1569 119.505 49.1569H126.713V47.6729C126.713 46.4362 126.325 45.4292 125.547 44.6519C124.77 43.8392 123.533 43.4329 121.837 43.4329C120.177 43.4329 118.94 43.8216 118.127 44.5989C117.315 45.3409 116.785 46.3126 116.537 47.5139L110.389 45.4469C110.813 44.1042 111.485 42.8852 112.403 41.7899C113.357 40.6592 114.612 39.7582 116.166 39.0869C117.756 38.3802 119.682 38.0269 121.943 38.0269C125.406 38.0269 128.144 38.8925 130.158 40.6239C132.172 42.3552 133.179 44.8639 133.179 48.1499V57.9549C133.179 59.0149 133.674 59.5449 134.663 59.5449H136.783V65.0569H132.331C131.024 65.0569 129.946 64.7389 129.098 64.1029C128.25 63.4669 127.826 62.6189 127.826 61.5589V61.5059H126.819C126.678 61.9299 126.36 62.4952 125.865 63.2019C125.371 63.8732 124.593 64.4739 123.533 65.0039C122.473 65.5339 121.025 65.7989 119.187 65.7989ZM120.353 60.3929C122.226 60.3929 123.745 59.8806 124.911 58.8559C126.113 57.7959 126.713 56.4002 126.713 54.6689V54.1389H119.982C118.746 54.1389 117.774 54.4039 117.067 54.9339C116.361 55.4639 116.007 56.2059 116.007 57.1599C116.007 58.1139 116.378 58.8912 117.12 59.4919C117.862 60.0926 118.94 60.3929 120.353 60.3929ZM139.864 65.0569V27.9569H163.184V34.3169H146.86V43.2739H161.912V49.6339H146.86V65.0569H139.864ZM166.586 65.0569V27.9569H182.698C185.03 27.9569 187.061 28.3632 188.793 29.1759C190.524 29.9885 191.867 31.1369 192.821 32.6209C193.775 34.1049 194.252 35.8539 194.252 37.8679V38.5039C194.252 40.7299 193.722 42.5319 192.662 43.9099C191.602 45.2879 190.294 46.2949 188.74 46.9309V47.8849C190.153 47.9556 191.248 48.4502 192.026 49.3689C192.803 50.2522 193.192 51.4359 193.192 52.9199V65.0569H186.196V53.9269C186.196 53.0789 185.966 52.3899 185.507 51.8599C185.083 51.3299 184.358 51.0649 183.334 51.0649H173.582V65.0569H166.586ZM173.582 44.7049H181.956C183.616 44.7049 184.906 44.2632 185.825 43.3799C186.779 42.4612 187.256 41.2599 187.256 39.7759V39.2459C187.256 37.7619 186.796 36.5782 185.878 35.6949C184.959 34.7762 183.652 34.3169 181.956 34.3169H173.582V44.7049ZM198.483 65.0569V27.9569H205.479V65.0569H198.483ZM208.535 65.0569L219.4 46.3479L208.641 27.9569H216.591L223.958 41.3659H224.912L232.279 27.9569H240.229L229.47 46.3479L240.335 65.0569H232.385L224.912 51.3299H223.958L216.485 65.0569H208.535ZM251.972 65.0569V34.3169H241.16V27.9569H269.78V34.3169H258.968V65.0569H251.972ZM276.773 65.7989C274.901 65.7989 273.222 65.4809 271.738 64.8449C270.254 64.1736 269.071 63.2196 268.187 61.9829C267.339 60.7109 266.915 59.1739 266.915 57.3719C266.915 55.5699 267.339 54.0682 268.187 52.8669C269.071 51.6302 270.272 50.7116 271.791 50.1109C273.346 49.4749 275.113 49.1569 277.091 49.1569H284.299V47.6729C284.299 46.4362 283.911 45.4292 283.133 44.6519C282.356 43.8392 281.119 43.4329 279.423 43.4329C277.763 43.4329 276.526 43.8216 275.713 44.5989C274.901 45.3409 274.371 46.3126 274.123 47.5139L267.975 45.4469C268.399 44.1042 269.071 42.8852 269.989 41.7899C270.943 40.6592 272.198 39.7582 273.752 39.0869C275.342 38.3802 277.268 38.0269 279.529 38.0269C282.992 38.0269 285.73 38.8925 287.744 40.6239C289.758 42.3552 290.765 44.8639 290.765 48.1499V57.9549C290.765 59.0149 291.26 59.5449 292.249 59.5449H294.369V65.0569H289.917C288.61 65.0569 287.532 64.7389 286.684 64.1029C285.836 63.4669 285.412 62.6189 285.412 61.5589V61.5059H284.405C284.264 61.9299 283.946 62.4952 283.451 63.2019C282.957 63.8732 282.179 64.4739 281.119 65.0039C280.059 65.5339 278.611 65.7989 276.773 65.7989ZM277.939 60.3929C279.812 60.3929 281.331 59.8806 282.497 58.8559C283.699 57.7959 284.299 56.4002 284.299 54.6689V54.1389H277.568C276.332 54.1389 275.36 54.4039 274.653 54.9339C273.947 55.4639 273.593 56.2059 273.593 57.1599C273.593 58.1139 273.964 58.8912 274.706 59.4919C275.448 60.0926 276.526 60.3929 277.939 60.3929Z" fill="black"/>
</svg>