<svg width="205" height="95" viewBox="0 0 205 95" fill="none" xmlns="http://www.w3.org/2000/svg">
<g clip-path="url(#clip0_146_196)">
<path d="M39.2092 1.04939C41.4334 1.01 43.5211 1.79116 45.1447 3.31704C45.2318 3.4044 45.318 3.49262 45.4027 3.58221C45.5642 3.7434 45.7351 3.89036 45.9079 4.03936C46.1291 4.23305 46.3421 4.43525 46.5558 4.63709C46.9212 4.98083 47.289 5.32151 47.6605 5.65879C47.9196 5.89456 48.1755 6.13363 48.432 6.37224C48.6832 6.60587 48.9352 6.83858 49.1881 7.07038C49.52 7.37456 49.85 7.68065 50.1796 7.98722C50.4298 8.21978 50.6808 8.45142 50.9326 8.68224C51.2244 8.94974 51.5149 9.21857 51.8048 9.48817C52.2289 9.88256 52.6551 10.2747 53.082 10.6661C53.549 11.0941 54.0146 11.5235 54.4785 11.9548C54.7287 12.1874 54.9797 12.4191 55.2315 12.6499C55.5633 12.9541 55.8933 13.2602 56.223 13.5667C56.4732 13.7993 56.7242 14.0309 56.976 14.2618C57.3078 14.5659 57.6378 14.872 57.9674 15.1786C58.2503 15.4415 58.5344 15.7031 58.8191 15.964C59.0793 16.2027 59.3381 16.4429 59.5966 16.6834C59.8744 16.9419 60.1531 17.1992 60.4338 17.4545C60.7549 17.7465 61.0732 18.0415 61.3909 18.3372C61.6422 18.5708 61.8942 18.8035 62.1471 19.0353C62.4789 19.3395 62.809 19.6456 63.1386 19.9522C63.3888 20.1847 63.6398 20.4164 63.8916 20.6472C64.2234 20.9514 64.5534 21.2575 64.8831 21.564C65.1659 21.827 65.45 22.0885 65.7347 22.3495C65.9949 22.5882 66.2537 22.8283 66.5122 23.0689C66.79 23.3273 67.0687 23.5846 67.3494 23.8399C67.6705 24.132 67.9888 24.4269 68.3066 24.7226C68.5578 24.9563 68.8098 25.189 69.0627 25.4208C69.3946 25.725 69.7246 26.0311 70.0542 26.3376C70.3044 26.5702 70.5554 26.8018 70.8072 27.0326C71.099 27.3001 71.3896 27.569 71.6794 27.8386C72.1035 28.233 72.5297 28.6251 72.9566 29.0165C73.4236 29.4445 73.8892 29.8739 74.3531 30.3052C74.6033 30.5378 74.8543 30.7695 75.1061 31.0003C75.2411 31.1242 75.3761 31.2482 75.5111 31.3723C75.5487 31.4068 75.5862 31.4413 75.625 31.4769C75.9 31.7297 76.1733 31.9844 76.4456 32.2402C76.4799 32.2722 76.5143 32.3041 76.5496 32.3371C78.0407 33.7318 78.8753 35.6035 79 37.6337C79.0082 38.0085 79.0073 38.3832 79.0061 38.7581C79.006 38.8655 79.0059 38.973 79.0058 39.0804C79.0056 39.361 79.005 39.6416 79.0043 39.9221C79.0036 40.2093 79.0034 40.4965 79.0031 40.7837C79.0024 41.3456 79.0013 41.9074 79 42.4693C78.9312 42.4638 78.8625 42.4582 78.7916 42.4526C73.3515 42.0161 67.9116 41.6428 9.84386 45.817C9.78631 45.8313 9.72877 45.8456 9.66948 45.8603C7.28074 46.4543 4.92517 47.1501 2.58947 47.9248C2.52268 47.947 2.45589 47.9691 2.38708 47.9919C1.72543 48.2119 1.06538 48.4339 0.415194 48.6858C0.137008 48.7927 0.137009 48.7927 1.14832e-05 48.7927C-0.0043672 47.3086 -0.00765807 45.8244 -0.0096739 44.3402C-0.010635 43.651 -0.0119427 42.9617 -0.0140888 42.2725C-0.0159598 41.6713 -0.0171609 41.0701 -0.0175758 40.469C-0.0178181 40.151 -0.0183813 39.8331 -0.019751 39.5152C-0.0210333 39.2151 -0.0214059 38.915 -0.0211275 38.6149C-0.0211783 38.5056 -0.0215429 38.3963 -0.0222683 38.287C-0.0371549 35.9253 0.811001 33.9353 2.47266 32.2479C2.61455 32.1124 2.7604 31.9828 2.90926 31.8549C3.17501 31.6243 3.43179 31.3851 3.68756 31.1437C4.10569 30.7505 4.52635 30.3603 4.94986 29.9728C5.11462 29.8221 5.2792 29.6712 5.44372 29.5202C5.49338 29.4746 5.49338 29.4746 5.54405 29.4281C5.84479 29.1518 6.14392 28.8737 6.44297 28.5956C6.72589 28.3326 7.01004 28.071 7.2948 27.81C7.55359 27.5726 7.81108 27.3338 8.06823 27.0946C8.39082 26.7946 8.71451 26.4958 9.03928 26.1981C9.29807 25.9607 9.55556 25.7219 9.81271 25.4828C10.1353 25.1828 10.4589 24.884 10.7836 24.5864C11.0438 24.3477 11.3026 24.1076 11.5611 23.867C11.8987 23.5529 12.2384 23.2414 12.5796 22.9311C12.8399 22.6936 13.0975 22.4533 13.3555 22.2133C13.6067 21.9796 13.8587 21.7469 14.1116 21.5151C14.4034 21.2476 14.694 20.9788 14.9838 20.7092C15.3064 20.4092 15.6301 20.1104 15.9549 19.8127C16.2137 19.5753 16.4712 19.3365 16.7283 19.0973C17.1851 18.6726 17.6444 18.2505 18.1042 17.829C18.5383 17.4311 18.9708 17.0317 19.402 16.6307C19.6849 16.3677 19.969 16.1061 20.2538 15.845C20.5126 15.6076 20.7701 15.3688 21.0272 15.1297C21.3498 14.8296 21.6735 14.5309 21.9983 14.2332C22.2571 13.9958 22.5145 13.757 22.7717 13.5178C23.0942 13.2178 23.4179 12.9191 23.7426 12.6215C24.0028 12.3828 24.2616 12.1426 24.5201 11.9021C24.8577 11.588 25.1974 11.2764 25.5386 10.9661C25.7989 10.7287 26.0565 10.4883 26.3144 10.2483C26.5657 10.0147 26.8177 9.78197 27.0706 9.55016C27.3624 9.28267 27.653 9.01383 27.9428 8.74423C28.2654 8.4442 28.5891 8.14542 28.9139 7.84773C29.1727 7.61032 29.4302 7.37154 29.6873 7.13237C30.1441 6.70759 30.6033 6.28551 31.0632 5.86403C31.4572 5.5028 31.8503 5.14058 32.2417 4.77658C32.5673 4.47384 32.8933 4.17158 33.2215 3.87177C33.3895 3.71825 33.5562 3.56368 33.7209 3.40664C34.1657 2.98499 34.6181 2.625 35.1388 2.29679C35.2059 2.25412 35.2729 2.21144 35.342 2.16748C36.5022 1.46759 37.8564 1.09831 39.2092 1.04939Z" fill="#020202"/>
<path d="M79.0001 53.1944C79.0043 56.2908 79.0083 59.3871 79.0106 62.4835C79.0107 62.5524 79.0107 62.5524 79.0107 62.6226C79.0115 63.6198 79.0122 64.617 79.0128 65.6142C79.0131 66.1033 79.0134 66.5924 79.0138 67.0815C79.0138 67.1301 79.0138 67.1788 79.0139 67.2289C79.0149 68.8045 79.0168 70.38 79.0191 71.9555C79.0215 73.5755 79.023 75.1954 79.0235 76.8154C79.0236 77.0446 79.0236 77.2737 79.0237 77.5029C79.0238 77.5706 79.0238 77.5706 79.0238 77.6396C79.0241 78.3636 79.0252 79.0876 79.0267 79.8116C79.0282 80.5406 79.0287 81.2697 79.0284 81.9988C79.0282 82.3933 79.0284 82.7878 79.0298 83.1824C79.031 83.5444 79.0311 83.9064 79.0302 84.2684C79.0301 84.3986 79.0304 84.5287 79.0312 84.6589C79.0445 86.9838 78.3023 88.9444 76.6949 90.6391C76.6522 90.6855 76.6096 90.732 76.5656 90.7798C75.2336 92.1788 73.1947 92.9935 71.274 93.0613C70.8984 93.0703 70.5228 93.0728 70.1471 93.0757C70.0202 93.0769 69.8932 93.0782 69.7662 93.0794C68.6091 93.0901 67.452 93.0959 66.2949 93.1005C65.4411 93.104 64.5875 93.1099 63.7338 93.1189C63.1317 93.125 62.5295 93.1282 61.9274 93.1294C61.5686 93.1302 61.21 93.1322 60.8513 93.1374C60.5132 93.1423 60.1753 93.1435 59.8372 93.1422C59.7141 93.1423 59.5911 93.1436 59.468 93.1464C58.4803 93.1676 57.8699 92.8722 57.0695 92.313C56.9974 92.2657 56.925 92.2188 56.8523 92.1724C56.6726 92.0577 56.4972 91.9382 56.3218 91.817C56.283 91.7902 56.2441 91.7634 56.204 91.7358C55.3041 91.1139 54.4197 90.4727 53.5805 89.7712C53.5483 89.7444 53.5162 89.7177 53.483 89.6901C53.0834 89.3577 52.6889 89.021 52.304 88.6717C52.1764 88.5572 52.0472 88.4451 51.9171 88.3334C51.6663 88.1151 51.4284 87.8867 51.1933 87.652C51.1522 87.6111 51.111 87.5702 51.0687 87.5281C50.9825 87.4424 50.8964 87.3566 50.8103 87.2707C50.6799 87.1406 50.5491 87.0108 50.4183 86.881C50.3339 86.7971 50.2496 86.7131 50.1653 86.6291C50.1269 86.591 50.0884 86.5528 50.0488 86.5136C49.7809 86.2455 49.5291 85.9663 49.2816 85.6795C49.2396 85.6315 49.2396 85.6315 49.1968 85.5825C48.7005 85.0144 48.2388 84.4226 47.7864 83.8197C47.7528 83.7752 47.7192 83.7306 47.6846 83.6848C45.2404 80.433 43.3654 76.3395 43.9608 72.1948C44.4766 69.0238 46.4523 66.4331 49.0243 64.5794C53.1801 61.6323 57.962 59.374 71.7106 54.6822C71.7667 54.6677 71.8227 54.6532 71.8804 54.6382C73.6469 54.1815 75.4258 53.8038 77.2169 53.4557C77.2791 53.4435 77.3413 53.4314 77.4054 53.419C77.7166 53.3591 78.0282 53.3018 78.3405 53.2478C78.3998 53.2375 78.459 53.2272 78.5201 53.2167C78.6826 53.1952 78.8364 53.1928 79.0001 53.1944Z" fill="#373737"/>
<path d="M78.9999 45.445C78.9999 46.4883 78.9999 47.5317 78.9999 48.6067C78.7643 48.6203 78.5287 48.6339 78.2859 48.6479C72.693 48.9771 67.1266 49.5641 36.1117 59.2356C35.9666 59.3212 35.8211 59.4055 35.6749 59.4892C34.527 60.1474 33.4119 60.8613 32.3485 61.6478C32.2005 61.7569 32.0517 61.865 31.9027 61.9728C31.3693 62.3598 30.8472 62.7532 30.3414 63.1754C30.226 63.2685 30.1104 63.3615 29.9949 63.4544C29.715 63.6821 29.4449 63.9186 29.1776 64.1608C29.0517 64.2745 28.9242 64.386 28.7955 64.4967C28.2251 64.9932 27.6774 65.5104 27.1406 66.0427C27.0706 66.1119 27.0706 66.1119 26.9993 66.1825C26.7436 66.4375 26.4986 66.6983 26.2623 66.9712C26.1424 67.1097 26.0186 67.2445 25.8946 67.3794C25.6001 67.705 25.3196 68.0401 25.0457 68.383C25.0135 68.4233 24.9812 68.4636 24.948 68.5051C21.3114 73.0686 19.052 78.4319 18.1924 84.8115C18.1838 84.8791 18.1838 84.8791 18.175 84.948C18.0054 86.2987 17.9882 87.6519 17.9862 89.0113C17.9861 89.0983 17.9859 89.1852 17.9856 89.2721C17.9848 89.5636 17.9855 89.855 17.9867 90.1465C17.9867 90.2174 17.9866 90.2884 17.9866 90.3615C17.9938 91.2612 18.0679 92.1595 18.1301 93.0568C16.7798 93.0612 15.4296 93.0645 14.0794 93.0665C13.4523 93.0674 12.8252 93.0687 12.1982 93.0709C11.651 93.0727 11.1038 93.0739 10.5567 93.0743C10.2675 93.0746 9.97836 93.0751 9.68919 93.0765C6.91539 93.0891 4.51906 92.7533 2.42976 90.763C2.38399 90.7214 2.33821 90.6798 2.29104 90.6369C1.39771 89.7966 0.777018 88.7202 0.381558 87.5703C0.364472 87.5211 0.347385 87.472 0.329781 87.4213C0.0283257 86.49 -0.0287151 85.5625 -0.0311526 84.592C-0.0321224 84.4679 -0.0331658 84.3438 -0.0342708 84.2198C-0.0369616 83.8861 -0.0384442 83.5525 -0.0395185 83.2188C-0.040209 83.0098 -0.0410997 82.8009 -0.0420434 82.5919C-0.0449247 81.9364 -0.0470161 81.2809 -0.0480212 80.6254C-0.0491907 79.8715 -0.0530267 79.1177 -0.0591402 78.3638C-0.0637196 77.7788 -0.0658939 77.1937 -0.0662664 76.6086C-0.0665425 76.2601 -0.0678262 75.9117 -0.0716358 75.5632C-0.0751528 75.2356 -0.0756607 74.9082 -0.0739326 74.5807C-0.0738063 74.461 -0.0747333 74.3414 -0.0768302 74.2218C-0.0886304 73.5072 -0.0285163 73.0416 0.471271 72.5052C0.546368 72.4287 0.546367 72.4287 0.622982 72.3506C0.68521 72.2764 0.746874 72.2017 0.807456 72.1261C0.857089 72.0685 0.906722 72.0109 0.957859 71.9515C0.985853 71.919 1.01385 71.8864 1.04269 71.8529C1.10137 71.7846 1.16013 71.7165 1.21897 71.6484C1.31028 71.5424 1.40098 71.436 1.49157 71.3294C1.88113 70.8723 2.2813 70.4274 2.69292 69.9898C2.77721 69.8992 2.86069 69.8078 2.94381 69.7161C3.40274 69.2114 3.88068 68.7275 4.36503 68.247C4.49811 68.115 4.63085 67.9825 4.76356 67.8501C4.84966 67.7645 4.93577 67.6789 5.0219 67.5933C5.06079 67.5544 5.09967 67.5156 5.13974 67.4756C5.37442 67.2433 5.61621 67.0225 5.86716 66.8077C6.05141 66.6482 6.22786 66.4806 6.40546 66.3139C6.71355 66.027 7.02848 65.7545 7.35802 65.492C7.57444 65.3161 7.78408 65.1333 7.99419 64.95C8.39468 64.6022 8.80576 64.2718 9.22664 63.9489C9.35493 63.85 9.48246 63.7502 9.60992 63.6503C10.2138 63.1779 10.8275 62.7219 11.4535 62.279C11.581 62.1887 11.7081 62.0979 11.8351 62.007C13.3258 60.9446 14.8684 59.9482 16.4479 59.0218C16.5019 58.99 16.556 58.9582 16.6116 58.9254C17.8614 58.1908 19.1309 57.5004 20.4195 56.8357C20.6495 56.7169 20.8781 56.596 21.1056 56.4727C26.2129 53.7135 31.9065 51.7751 39.3753 49.7226C39.4344 49.7072 39.4934 49.6919 39.5542 49.6761C41.5387 49.1609 43.5341 48.7057 45.5433 48.2967C45.6084 48.2835 45.6734 48.2702 45.7404 48.2566C51.3742 47.1137 57.0875 46.3828 71.0252 45.507C71.0842 45.5051 71.1432 45.5032 71.204 45.5013C73.8018 45.4196 76.4012 45.4392 78.9999 45.445Z" fill="#020202"/>
</g>
<path d="M124.666 62.5569V25.4569H130.761V62.5569H124.666ZM100.869 62.5569V25.4569H106.964V62.5569H100.869ZM103.996 46.3919V40.5619H128.111V46.3919H103.996ZM153.23 63.3519C149.767 63.3519 146.675 62.5569 143.955 60.9669C141.269 59.3416 139.167 57.0802 137.648 54.1829C136.128 51.2502 135.369 47.8582 135.369 44.0069C135.369 40.1556 136.128 36.7812 137.648 33.8839C139.167 30.9512 141.269 28.6899 143.955 27.0999C146.675 25.4745 149.767 24.6619 153.23 24.6619C156.728 24.6619 159.819 25.4745 162.505 27.0999C165.19 28.6899 167.292 30.9512 168.812 33.8839C170.331 36.7812 171.091 40.1556 171.091 44.0069C171.091 47.8582 170.331 51.2502 168.812 54.1829C167.292 57.0802 165.19 59.3416 162.505 60.9669C159.819 62.5569 156.728 63.3519 153.23 63.3519ZM153.23 57.5219C155.491 57.5219 157.505 56.9742 159.272 55.8789C161.038 54.7482 162.416 53.1759 163.406 51.1619C164.43 49.1479 164.943 46.7629 164.943 44.0069C164.943 41.2156 164.43 38.8129 163.406 36.7989C162.416 34.7849 161.038 33.2302 159.272 32.1349C157.505 31.0396 155.491 30.4919 153.23 30.4919C150.968 30.4919 148.954 31.0396 147.188 32.1349C145.421 33.2302 144.025 34.7849 143.001 36.7989C142.011 38.8129 141.517 41.2156 141.517 44.0069C141.517 46.7629 142.011 49.1479 143.001 51.1619C144.025 53.1759 145.421 54.7482 147.188 55.8789C148.954 56.9742 150.968 57.5219 153.23 57.5219ZM198.094 62.5569L184.685 26.5699L184.367 25.4569H190.462L204.56 62.1329V62.5569H198.094ZM170.269 62.5569V62.1329L184.367 25.4569H190.462L189.985 26.5699L176.576 62.5569H170.269ZM176.523 53.7589L178.113 47.9289H197.246L198.836 53.7589H176.523Z" fill="black"/>
<defs>
<clipPath id="clip0_146_196">
<rect width="79" height="92" fill="white" transform="translate(0 1.05688)"/>
</clipPath>
</defs>
</svg>