<svg width="293" height="95" viewBox="0 0 293 95" fill="none" xmlns="http://www.w3.org/2000/svg">
<path d="M39.7585 86.0753C39.5663 88.276 37.621 89.9231 35.4474 89.5281C30.3728 88.6059 25.4934 86.7795 21.0457 84.1254C16.5981 81.4713 12.674 78.0442 9.4528 74.0159C8.07315 72.2906 8.59908 69.7964 10.4447 68.5823L18.219 63.4683C20.0646 62.2542 22.5243 62.7923 24.0083 64.4289C25.7218 66.3187 27.7106 67.95 29.9138 69.2648C32.117 70.5795 34.497 71.5552 36.9738 72.166C39.1187 72.695 40.7601 74.6042 40.568 76.805L39.7585 86.0753Z" fill="black"/>
<path d="M8.0626 64.4284C6.08261 65.4081 3.66433 64.6024 2.87199 62.5402C1.02205 57.7256 0.0460452 52.6078 0.00159025 47.4287C-0.0428647 42.2495 0.84515 37.1157 2.61217 32.2701C3.369 30.1946 5.77309 29.3475 7.7696 30.2931L16.1795 34.2764C18.176 35.222 18.9949 37.6031 18.3681 39.7214C17.6444 42.1676 17.2845 44.7146 17.3065 47.2801C17.3285 49.8457 17.7321 52.3861 18.4977 54.8195C19.1607 56.9268 18.3829 59.3215 16.4029 60.3013L8.0626 64.4284Z" fill="black"/>
<path d="M10.1936 25.9209C8.33377 24.7287 7.7785 22.2409 9.13773 20.4994C12.3112 16.4335 16.1947 12.9604 20.6108 10.2541C25.0269 7.54775 29.8844 5.66404 34.9479 4.68212C37.1166 4.26155 39.0812 5.88563 39.2993 8.08397L40.2179 17.344C40.436 19.5424 38.8171 21.4709 36.6786 22.025C34.2092 22.665 31.8408 23.6686 29.6532 25.0092C27.4657 26.3498 25.4963 28.0045 23.8051 29.9143C22.3405 31.5682 19.8873 32.1353 18.0275 30.943L10.1936 25.9209Z" fill="black"/>
<path d="M45.166 7.94381C45.2788 5.73755 47.1636 4.0215 49.35 4.33802C54.4546 5.07701 59.3965 6.7266 63.9368 9.21893C68.4771 11.7113 72.522 14.9949 75.886 18.9047C77.3269 20.5793 76.8911 23.0907 75.0903 24.3704L67.5051 29.7609C65.7044 31.0406 63.2269 30.5914 61.685 29.0093C59.9046 27.1824 57.8584 25.6237 55.6093 24.3891C53.3602 23.1545 50.9466 22.2651 48.4495 21.7438C46.2869 21.2924 44.5778 19.4434 44.6906 17.2372L45.166 7.94381Z" fill="black"/>
<path d="M78.4124 29.9829C80.4005 29.0197 82.812 29.8457 83.587 31.9144C85.3965 36.7444 86.3296 41.8702 86.3306 47.0495C86.3316 52.2289 85.4006 57.355 83.593 62.1857C82.8188 64.2547 80.4077 65.0817 78.4192 64.1193L70.043 60.0657C68.0545 59.1034 67.2556 56.7155 67.9001 54.6025C68.6443 52.1625 69.0256 49.6186 69.0251 47.053C69.0246 44.4873 68.6423 41.9436 67.8971 39.5039C67.2518 37.3911 68.0497 35.003 70.0378 34.0399L78.4124 29.9829Z" fill="black"/>
<path d="M75.0992 69.7328C76.9004 71.0118 77.3372 73.5231 75.8971 75.1983C72.5346 79.1094 68.491 82.3947 63.9517 84.8888C59.4124 87.3829 54.4711 89.0345 49.3669 89.7756C47.1806 90.0929 45.2951 88.3777 45.1814 86.1714L44.7024 76.8783C44.5886 74.6721 46.297 72.8224 48.4594 72.3701C50.9563 71.8479 53.3696 70.9575 55.6181 69.722C57.8667 68.4865 59.9123 66.9269 61.692 65.0993C63.2333 63.5166 65.7106 63.0664 67.5118 64.3454L75.0992 69.7328Z" fill="black"/>
<path d="M108.2 62.5569V25.4569H114.295V62.5569H108.2ZM111.327 62.5569V56.7269H132.209V62.5569H111.327ZM146.118 63.3519C143.433 63.3519 141.066 62.7512 139.016 61.5499C136.967 60.3486 135.359 58.6879 134.193 56.5679C133.027 54.4126 132.444 51.9392 132.444 49.1479C132.444 46.3919 133.027 43.9539 134.193 41.8339C135.359 39.6786 136.967 38.0002 139.016 36.7989C141.066 35.5975 143.433 34.9969 146.118 34.9969C148.839 34.9969 151.224 35.5975 153.273 36.7989C155.323 38.0002 156.93 39.6786 158.096 41.8339C159.262 43.9539 159.845 46.3919 159.845 49.1479C159.845 51.9392 159.262 54.4126 158.096 56.5679C156.93 58.6879 155.323 60.3486 153.273 61.5499C151.224 62.7512 148.839 63.3519 146.118 63.3519ZM146.118 57.8399C147.673 57.8399 149.016 57.4866 150.146 56.7799C151.277 56.0732 152.16 55.0662 152.796 53.7589C153.432 52.4516 153.75 50.9322 153.75 49.2009C153.75 47.3989 153.432 45.8619 152.796 44.5899C152.16 43.2826 151.277 42.2756 150.146 41.5689C149.016 40.8622 147.673 40.5089 146.118 40.5089C144.599 40.5089 143.274 40.8622 142.143 41.5689C141.013 42.2756 140.129 43.2826 139.493 44.5899C138.857 45.8619 138.539 47.3812 138.539 49.1479C138.539 50.9146 138.857 52.4516 139.493 53.7589C140.129 55.0662 141.013 56.0732 142.143 56.7799C143.274 57.4866 144.599 57.8399 146.118 57.8399ZM175.842 63.3519C173.156 63.3519 170.789 62.7512 168.74 61.5499C166.69 60.3486 165.083 58.6879 163.917 56.5679C162.751 54.4126 162.168 51.9392 162.168 49.1479C162.168 46.3919 162.751 43.9539 163.917 41.8339C165.083 39.6786 166.69 38.0002 168.74 36.7989C170.789 35.5975 173.156 34.9969 175.842 34.9969C178.562 34.9969 180.947 35.5975 182.997 36.7989C185.046 38.0002 186.654 39.6786 187.82 41.8339C188.986 43.9539 189.569 46.3919 189.569 49.1479C189.569 51.9392 188.986 54.4126 187.82 56.5679C186.654 58.6879 185.046 60.3486 182.997 61.5499C180.947 62.7512 178.562 63.3519 175.842 63.3519ZM175.842 57.8399C177.396 57.8399 178.739 57.4866 179.87 56.7799C181 56.0732 181.884 55.0662 182.52 53.7589C183.156 52.4516 183.474 50.9322 183.474 49.2009C183.474 47.3989 183.156 45.8619 182.52 44.5899C181.884 43.2826 181 42.2756 179.87 41.5689C178.739 40.8622 177.396 40.5089 175.842 40.5089C174.322 40.5089 172.997 40.8622 171.867 41.5689C170.736 42.2756 169.853 43.2826 169.217 44.5899C168.581 45.8619 168.263 47.3812 168.263 49.1479C168.263 50.9146 168.581 52.4516 169.217 53.7589C169.853 55.0662 170.736 56.0732 171.867 56.7799C172.997 57.4866 174.322 57.8399 175.842 57.8399ZM207.95 63.3519C205.972 63.3519 204.205 62.9456 202.65 62.1329C201.096 61.3202 199.788 60.2602 198.728 58.9529C197.704 57.6456 196.979 56.2499 196.555 54.7659V43.5299C196.979 42.0106 197.704 40.6149 198.728 39.3429C199.788 38.0356 201.096 36.9932 202.65 36.2159C204.205 35.4032 205.972 34.9969 207.95 34.9969C210.388 34.9969 212.561 35.6152 214.469 36.8519C216.413 38.0532 217.95 39.7139 219.08 41.8339C220.246 43.9539 220.829 46.3919 220.829 49.1479C220.829 51.9039 220.246 54.3596 219.08 56.5149C217.95 58.6349 216.413 60.3132 214.469 61.5499C212.561 62.7512 210.388 63.3519 207.95 63.3519ZM193.269 73.1569V35.7919H198.993V44.0599L197.721 49.1479L199.364 54.2889V73.1569H193.269ZM207.049 57.7869C208.569 57.7869 209.894 57.4336 211.024 56.7269C212.19 55.9849 213.091 54.9602 213.727 53.6529C214.399 52.3456 214.734 50.8439 214.734 49.1479C214.734 47.4519 214.399 45.9679 213.727 44.6959C213.091 43.3886 212.19 42.3639 211.024 41.6219C209.894 40.8799 208.569 40.5089 207.049 40.5089C205.53 40.5089 204.17 40.8799 202.968 41.6219C201.802 42.3639 200.884 43.3886 200.212 44.6959C199.576 45.9679 199.258 47.4519 199.258 49.1479C199.258 50.8439 199.576 52.3456 200.212 53.6529C200.884 54.9602 201.802 55.9849 202.968 56.7269C204.17 57.4336 205.53 57.7869 207.049 57.7869ZM224.494 62.5569V35.7919H230.218V42.6289L228.681 42.5229C229.423 40.4382 230.659 38.7952 232.391 37.5939C234.122 36.3926 236.101 35.7919 238.327 35.7919H240.924V41.2509H237.426C236.048 41.2509 234.846 41.5689 233.822 42.2049C232.797 42.8056 232.002 43.6712 231.437 44.8019C230.871 45.9326 230.589 47.2752 230.589 48.8299V62.5569H224.494ZM250.219 63.3519C248.381 63.3519 246.738 62.9986 245.29 62.2919C243.876 61.5852 242.763 60.5959 241.951 59.3239C241.138 58.0519 240.732 56.6032 240.732 54.9779C240.732 52.4692 241.597 50.4729 243.329 48.9889C245.06 47.4696 247.551 46.5862 250.802 46.3389L261.19 45.4909V50.5259L251.703 51.3209C250.007 51.4622 248.788 51.8156 248.046 52.3809C247.304 52.9462 246.933 53.7059 246.933 54.6599C246.933 55.6139 247.357 56.3912 248.205 56.9919C249.053 57.5926 250.13 57.8929 251.438 57.8929C252.816 57.8929 254.052 57.5572 255.148 56.8859C256.278 56.1792 257.179 55.2782 257.851 54.1829C258.522 53.0876 258.858 51.9039 258.858 50.6319V46.2329C258.858 44.5369 258.292 43.1412 257.162 42.0459C256.031 40.9152 254.547 40.3499 252.71 40.3499C251.155 40.3499 249.865 40.7386 248.841 41.5159C247.851 42.2579 247.215 43.1942 246.933 44.3249H246.35L241.156 43.0529C241.792 40.6502 243.117 38.7069 245.131 37.2229C247.18 35.7389 249.724 34.9969 252.763 34.9969C256.543 34.9969 259.494 36.0922 261.614 38.2829C263.734 40.4382 264.794 43.4946 264.794 47.4519V62.5569H259.388V54.7659L261.561 55.0839C261.137 56.6032 260.377 57.9989 259.282 59.2709C258.186 60.5076 256.861 61.4969 255.307 62.2389C253.787 62.9809 252.091 63.3519 250.219 63.3519ZM269.655 62.5569V35.7919H275.75V62.5569H269.655ZM272.729 31.7639C271.669 31.7639 270.768 31.3929 270.026 30.6509C269.284 29.9089 268.913 28.9902 268.913 27.8949C268.913 26.8702 269.284 25.9869 270.026 25.2449C270.768 24.4676 271.687 24.0789 272.782 24.0789C273.807 24.0789 274.69 24.4676 275.432 25.2449C276.21 25.9869 276.598 26.8879 276.598 27.9479C276.598 29.0079 276.21 29.9089 275.432 30.6509C274.69 31.3929 273.789 31.7639 272.729 31.7639ZM281.684 62.5569V24.3969L287.62 23.6549L287.779 24.0789V62.5569H281.684Z" fill="black"/>
</svg>
