<svg width="183" height="95" viewBox="0 0 183 95" fill="none" xmlns="http://www.w3.org/2000/svg">
<path d="M0 66.5015V14.4767H7.89597V66.5015H0Z" fill="black"/>
<path d="M33.4904 67.4609C29.8007 67.4609 26.5292 66.6737 23.6758 65.0995C20.8224 63.5252 18.584 61.2376 16.9605 58.2366C15.3863 55.2356 14.5991 51.5459 14.5991 47.1675C14.5991 42.6906 15.4355 38.9763 17.1081 36.0246C18.7808 33.0728 21.0192 30.859 23.8234 29.3831C26.6768 27.9072 29.8745 27.1693 33.4166 27.1693C37.0571 27.1693 40.3041 27.9318 43.1575 29.4569C46.0108 30.982 48.2493 33.245 49.8727 36.246C51.5454 39.2469 52.3817 42.9858 52.3817 47.4627C52.3817 51.8903 51.5454 55.6046 49.8727 58.6056C48.2493 61.5573 46.0108 63.7712 43.1575 65.247C40.3041 66.7229 37.0817 67.4609 33.4904 67.4609ZM33.7856 61.1146C35.9994 61.1146 37.8935 60.598 39.4678 59.5649C41.042 58.5318 42.2473 57.0067 43.0837 54.9897C43.92 52.9726 44.3382 50.562 44.3382 47.7578C44.3382 44.8553 43.8954 42.3709 43.0099 40.3046C42.1243 38.1892 40.8452 36.5657 39.1726 35.4342C37.5491 34.3027 35.5567 33.737 33.1953 33.737C31.0798 33.737 29.2104 34.2535 27.5869 35.2866C26.0126 36.2706 24.8073 37.771 23.971 39.7881C23.1347 41.7559 22.7165 44.1665 22.7165 47.0199C22.7165 51.4967 23.7004 54.9651 25.6683 57.4249C27.6361 59.8847 30.3419 61.1146 33.7856 61.1146Z" fill="black"/>
<path d="M72.7132 67.4609C69.4662 67.4609 66.662 66.6245 64.3006 64.9519C61.9392 63.23 60.1436 60.8686 58.9137 57.8676C57.6838 54.8175 57.0688 51.3 57.0688 47.3151C57.0688 43.4286 57.6346 39.9849 58.7661 36.9839C59.9468 33.9337 61.6686 31.5477 63.9317 29.8259C66.2439 28.104 69.0727 27.2431 72.418 27.2431C75.0746 27.2431 77.2638 27.7842 78.9857 28.8665C80.7075 29.8997 82.085 31.3263 83.1181 33.1466C84.2004 34.9669 85.0122 36.9839 85.5533 39.1977H87.0292C86.7832 37.771 86.5373 36.2952 86.2913 34.7701C86.0453 33.1958 85.8485 31.6953 85.7009 30.2686C85.5533 28.7927 85.4796 27.4891 85.4796 26.3575V14.4767H93.5969V66.5015H86.5865L86.8816 55.8752H85.5533C84.963 58.2858 84.1267 60.352 83.0443 62.0739C81.962 63.7958 80.5599 65.1241 78.8381 66.0588C77.1654 66.9935 75.1238 67.4609 72.7132 67.4609ZM74.927 60.6718C76.6488 60.6718 78.1739 60.2782 79.5022 59.4911C80.8305 58.704 81.9374 57.6709 82.823 56.3918C83.7085 55.1127 84.3726 53.7352 84.8154 52.2593C85.3074 50.7342 85.5533 49.3075 85.5533 47.9792V46.9461C85.5533 45.9622 85.4058 44.9045 85.1106 43.773C84.8646 42.5922 84.4464 41.4361 83.8561 40.3046C83.3149 39.1239 82.6262 38.0662 81.7898 37.1315C80.9535 36.1968 79.945 35.4588 78.7643 34.9177C77.6328 34.3273 76.3537 34.0321 74.927 34.0321C72.8607 34.0321 71.1143 34.6225 69.6876 35.8032C68.3101 36.9347 67.2524 38.509 66.5145 40.526C65.7765 42.5431 65.4075 44.8553 65.4075 47.4627C65.4075 50.1193 65.7765 52.4561 66.5145 54.4731C67.3016 56.4409 68.4085 57.966 69.8352 59.0483C71.2619 60.1307 72.9591 60.6718 74.927 60.6718Z" fill="black"/>
<path d="M117.003 79.6369C112.871 79.6369 109.476 79.3171 106.82 78.6776C104.213 78.038 102.294 77.0787 101.064 75.7996C99.834 74.5205 99.2191 72.9462 99.2191 71.0768C99.2191 68.8138 100.105 66.9689 101.876 65.5422C103.647 64.0663 106.328 63.1316 109.919 62.738V61.2622C107.263 61.3114 105.246 61.0408 103.868 60.4504C102.54 59.8109 101.876 58.827 101.876 57.4987C101.876 56.1212 102.54 54.9651 103.868 54.0303C105.246 53.0464 107.459 52.1855 110.51 51.4475V50.0455C107.509 49.9471 105.196 49.0123 103.573 47.2413C101.949 45.4702 101.138 43.2072 101.138 40.4522C101.138 37.9432 101.802 35.754 103.13 33.8845C104.508 31.9659 106.5 30.49 109.108 29.4569C111.764 28.3746 114.962 27.8334 118.701 27.8334H137.223V34.3273L125.342 32.5562V34.0321C128.294 34.5733 130.508 35.508 131.984 36.8363C133.46 38.1646 134.198 39.9603 134.198 42.2233C134.198 44.2403 133.558 46.036 132.279 47.6103C131.049 49.1845 129.229 50.4144 126.818 51.3C124.407 52.1363 121.456 52.5545 117.963 52.5545C117.323 52.5545 116.635 52.5299 115.897 52.4807C115.159 52.4315 114.076 52.3085 112.65 52.1117C111.469 52.8496 110.51 53.5384 109.772 54.1779C109.083 54.8175 108.739 55.3832 108.739 55.8752C108.739 56.3672 109.034 56.7607 109.624 57.0559C110.264 57.3511 111.051 57.5479 111.985 57.6463C112.92 57.7446 113.806 57.7938 114.642 57.7938H124.088C125.072 57.7938 126.326 57.8922 127.851 58.089C129.376 58.2366 130.901 58.6302 132.426 59.2697C133.952 59.9093 135.231 60.9178 136.264 62.2953C137.297 63.6236 137.813 65.493 137.813 67.9036C137.813 70.6586 137.026 72.897 135.452 74.6189C133.878 76.3408 131.541 77.5953 128.442 78.3824C125.342 79.2187 121.53 79.6369 117.003 79.6369ZM117.52 73.0692C120.669 73.0692 123.202 72.8724 125.121 72.4789C127.039 72.1345 128.442 71.5441 129.327 70.7078C130.213 69.8715 130.655 68.8138 130.655 67.5347C130.655 66.354 130.36 65.4438 129.77 64.8043C129.18 64.1155 128.442 63.6482 127.556 63.4022C126.72 63.107 125.859 62.9348 124.973 62.8856C124.088 62.8364 123.325 62.8118 122.686 62.8118H113.904C111.297 63.2546 109.476 64.0171 108.443 65.0995C107.41 66.1326 106.894 67.2887 106.894 68.5678C106.894 69.7977 107.336 70.7324 108.222 71.372C109.108 72.0607 110.337 72.5035 111.912 72.7003C113.535 72.9462 115.405 73.0692 117.52 73.0692ZM118.037 47.8316C120.89 47.8316 123.03 47.2167 124.457 45.9868C125.933 44.7077 126.671 43.035 126.671 40.9688C126.671 38.755 125.933 36.9593 124.457 35.5818C122.981 34.1551 120.792 33.4418 117.889 33.4418C115.036 33.4418 112.846 34.1305 111.321 35.508C109.845 36.8855 109.108 38.632 109.108 40.7474C109.108 42.1741 109.452 43.4286 110.141 44.5109C110.829 45.544 111.813 46.3558 113.092 46.9461C114.421 47.5365 116.069 47.8316 118.037 47.8316Z" fill="black"/>
<path d="M169.435 40.7607V53.3949H174.754L182.26 46.0414V40.6911L169.344 27.9143H146.046L143.814 30.0231V40.7607H151.204L143.814 47.9703C143.856 53.7664 143.914 65.5201 143.814 66.166C143.715 66.8118 152.26 57.921 156.545 53.3949V40.7607H169.435Z" fill="black"/>
</svg>
