<svg width="252" height="85" viewBox="0 0 252 85" fill="none" xmlns="http://www.w3.org/2000/svg">
<g clip-path="url(#clip0_146_199)">
<path d="M23.1222 37.8968C16.2449 37.8968 9.36768 37.8968 2.49043 37.8968C0.205632 37.8968 0.007616 37.6805 0.007616 35.3997C0.015232 25.4619 0.0126933 15.5279 0 5.59773C0 1.92419 1.72502 0.0684444 5.41117 0.0570595C17.3607 0.0266996 29.3216 -0.0795599 41.2559 0.117779C52.7827 0.307528 62.3484 5.12716 69.953 13.5938C78.0221 22.5765 81.4684 33.229 80.9505 45.3122C80.2536 61.5623 69.1152 77.0269 53.7576 82.5751C49.321 84.1883 44.6343 85.0117 39.9117 85.0077C31.2243 85.0077 22.5396 85.0077 13.8573 85.0077C13.2709 85.0077 12.6845 84.7383 12.0942 84.5941C12.475 84.078 12.7416 83.4252 13.2366 83.0761C21.7056 76.7233 30.1924 70.3983 38.6969 64.1012C42.1965 61.494 45.7874 58.9969 49.1613 56.2342C52.4095 53.5777 53.8451 49.9649 52.9922 45.817C52.1772 41.8664 49.6145 39.2782 45.6541 38.227C44.8057 38.0305 43.9354 37.9438 43.0647 37.9689C36.4121 37.8854 29.7671 37.8968 23.1222 37.8968Z" fill="black"/>
<path d="M40.9703 48.9856C40.5247 49.3954 40.1097 49.8508 39.6261 50.2151C27.2704 59.5356 14.9032 68.846 2.52471 78.1462C1.98016 78.5523 1.21094 78.6661 0.544544 78.9052C0.3808 78.279 0.03808 77.6415 0.034272 77.0001C0 68.4614 0 59.9189 0 51.3802C0 49.0728 0.712096 48.2873 2.97024 48.2835C15.0949 48.2633 27.2196 48.2633 39.3443 48.2835C39.8362 48.313 40.3258 48.3725 40.8104 48.4619L40.9703 48.9856Z" fill="black"/>
</g>
<path d="M102.18 61.5V24.4H114.317C118.663 24.4 122.232 25.1597 125.023 26.679C127.85 28.1983 129.934 30.3537 131.277 33.145C132.655 35.901 133.344 39.187 133.344 43.003C133.344 46.7483 132.655 50.0167 131.277 52.808C129.934 55.564 127.85 57.7017 125.023 59.221C122.232 60.7403 118.663 61.5 114.317 61.5H102.18ZM108.01 56.571H114.052C117.373 56.571 120.006 56.0233 121.949 54.928C123.892 53.8327 125.288 52.278 126.136 50.264C126.984 48.25 127.408 45.8297 127.408 43.003C127.408 40.1763 126.984 37.7383 126.136 35.689C125.288 33.6397 123.892 32.0673 121.949 30.972C120.006 29.8767 117.373 29.329 114.052 29.329H108.01V56.571ZM136.342 61.5V35.212H142.172V39.293C142.808 37.9503 143.656 36.908 144.716 36.166C145.776 35.3887 147.013 35 148.426 35H152.083V40.247H147.843C146.642 40.247 145.617 40.5827 144.769 41.254C143.921 41.89 143.268 42.897 142.808 44.275C142.384 45.653 142.172 47.402 142.172 49.522V61.5H136.342ZM164.912 62.136C162.297 62.136 159.948 61.5707 157.863 60.44C155.778 59.274 154.118 57.6487 152.881 55.564C151.68 53.4793 151.079 51.0767 151.079 48.356C151.079 45.6 151.68 43.1973 152.881 41.148C154.118 39.0633 155.778 37.4557 157.863 36.325C159.983 35.159 162.333 34.576 164.912 34.576C167.562 34.576 169.912 35.159 171.961 36.325C174.046 37.4557 175.689 39.0633 176.89 41.148C178.127 43.1973 178.745 45.6 178.745 48.356C178.745 51.0767 178.127 53.4793 176.89 55.564C175.689 57.6487 174.046 59.274 171.961 60.44C169.876 61.5707 167.527 62.136 164.912 62.136ZM164.859 57.101C166.308 57.101 167.615 56.783 168.781 56.147C169.982 55.4757 170.936 54.504 171.643 53.232C172.35 51.9247 172.703 50.2993 172.703 48.356C172.703 46.4127 172.35 44.805 171.643 43.533C170.936 42.2257 169.982 41.254 168.781 40.618C167.615 39.9467 166.343 39.611 164.965 39.611C163.552 39.611 162.244 39.9467 161.043 40.618C159.842 41.254 158.888 42.2257 158.181 43.533C157.474 44.805 157.121 46.4127 157.121 48.356C157.121 50.2993 157.474 51.9247 158.181 53.232C158.888 54.504 159.824 55.4757 160.99 56.147C162.191 56.783 163.481 57.101 164.859 57.101ZM181.192 73.16V35.212H187.022V39.24C187.87 38.0033 189.036 36.9257 190.52 36.007C192.004 35.053 193.877 34.576 196.138 34.576C198.682 34.576 200.926 35.1767 202.869 36.378C204.813 37.5793 206.332 39.2223 207.427 41.307C208.558 43.3917 209.123 45.759 209.123 48.409C209.123 51.0237 208.558 53.3733 207.427 55.458C206.332 57.5427 204.813 59.1857 202.869 60.387C200.926 61.553 198.682 62.136 196.138 62.136C194.089 62.136 192.287 61.7297 190.732 60.917C189.178 60.1043 187.941 58.9913 187.022 57.578V73.16H181.192ZM195.078 57.048C196.668 57.048 198.064 56.677 199.265 55.935C200.502 55.193 201.456 54.186 202.127 52.914C202.834 51.6067 203.187 50.105 203.187 48.409C203.187 46.6777 202.834 45.1583 202.127 43.851C201.456 42.5083 200.502 41.4837 199.265 40.777C198.064 40.035 196.668 39.664 195.078 39.664C193.488 39.664 192.075 40.035 190.838 40.777C189.637 41.4837 188.683 42.4907 187.976 43.798C187.305 45.1053 186.969 46.6247 186.969 48.356C186.969 50.0873 187.305 51.6067 187.976 52.914C188.683 54.186 189.637 55.193 190.838 55.935C192.075 56.677 193.488 57.048 195.078 57.048ZM219.712 62.136C217.663 62.136 215.914 61.7827 214.465 61.076C213.052 60.334 211.974 59.3623 211.232 58.161C210.526 56.9597 210.172 55.6523 210.172 54.239C210.172 51.4477 211.179 49.2923 213.193 47.773C215.207 46.2537 217.857 45.494 221.143 45.494C222.627 45.494 223.952 45.6177 225.118 45.865C226.284 46.077 227.238 46.3067 227.98 46.554V45.335C227.98 43.2857 227.415 41.7663 226.284 40.777C225.189 39.7877 223.723 39.293 221.885 39.293C220.507 39.293 219.288 39.5757 218.228 40.141C217.168 40.7063 216.497 41.6957 216.214 43.109H210.596C210.808 41.201 211.444 39.6287 212.504 38.392C213.6 37.12 214.96 36.166 216.585 35.53C218.211 34.894 219.977 34.576 221.885 34.576C225.701 34.576 228.634 35.53 230.683 37.438C232.768 39.346 233.81 41.9783 233.81 45.335V52.225C233.81 53.5677 233.881 54.5393 234.022 55.14C234.199 55.7407 234.464 56.1293 234.817 56.306C235.206 56.4473 235.718 56.518 236.354 56.518H236.619V61.5H235.347C233.581 61.5 232.097 61.235 230.895 60.705C229.729 60.175 228.917 59.115 228.457 57.525C227.609 58.8323 226.461 59.9277 225.012 60.811C223.564 61.6943 221.797 62.136 219.712 62.136ZM220.878 57.578C222.221 57.578 223.369 57.26 224.323 56.624C225.277 55.9527 226.037 55.087 226.602 54.027C227.203 52.9317 227.574 51.7657 227.715 50.529C226.938 50.317 226.019 50.105 224.959 49.893C223.899 49.681 222.822 49.575 221.726 49.575C219.854 49.575 218.44 49.9637 217.486 50.741C216.532 51.5183 216.055 52.543 216.055 53.815C216.055 54.9103 216.479 55.8113 217.327 56.518C218.175 57.2247 219.359 57.578 220.878 57.578ZM242.062 61.5V54.292H249.588V61.5H242.062Z" fill="black"/>
<defs>
<clipPath id="clip0_146_199">
<rect width="81" height="85" fill="white"/>
</clipPath>
</defs>
</svg>