<svg width="263" height="95" viewBox="0 0 263 95" fill="none" xmlns="http://www.w3.org/2000/svg">
<path d="M0.000253433 28.5693L0.287879 85.3666H18.8475V28.8252H53.3767C53.3767 28.8252 54.9651 28.3809 56.6295 29.922C58.2938 31.463 58.4855 32.9749 58.3402 34.8678C58.195 36.7606 41.5073 52.7798 41.5073 52.7798V33.3571H24.0269V78.1656C24.0269 82.1426 27.2562 85.3666 31.2332 85.3666H81V65.7282H57.2612L73.0151 49.3269C73.0151 49.3269 87.6093 36.843 76.9806 19.6228C72.5756 12.4861 59.5132 8.74695 59.5132 8.74695L19.1744 9.11914C8.51796 9.21746 -0.0537131 17.9125 0.000253433 28.5693Z" fill="#0C0C0C"/>
<path d="M103.24 65.5569V27.9269H118.981C121.702 27.9269 124.051 28.3862 126.03 29.3049C128.009 30.2235 129.546 31.5309 130.641 33.2269C131.736 34.9229 132.284 36.9192 132.284 39.2159C132.284 40.9472 131.913 42.4842 131.171 43.8269C130.429 45.1696 129.422 46.2472 128.15 47.0599C126.913 47.8726 125.535 48.3672 124.016 48.5439L123.751 48.0139C126.189 48.0139 128.062 48.5616 129.369 49.6569C130.712 50.7522 131.471 52.4306 131.648 54.6919L132.602 65.5569H125.606L124.811 55.6989C124.705 54.2149 124.228 53.1196 123.38 52.4129C122.532 51.7062 121.119 51.3529 119.14 51.3529H110.13V65.5569H103.24ZM110.13 45.3109H118.557C120.642 45.3109 122.267 44.8162 123.433 43.8269C124.599 42.8376 125.182 41.4419 125.182 39.6399C125.182 37.8026 124.581 36.3892 123.38 35.3999C122.214 34.4106 120.5 33.9159 118.239 33.9159H110.13V45.3109ZM146.471 66.1929C143.609 66.1929 141.33 65.2566 139.634 63.3839C137.974 61.4759 137.143 58.8436 137.143 55.4869V37.2549H143.927V53.7909C143.927 56.1582 144.316 57.9072 145.093 59.0379C145.906 60.1332 147.125 60.6809 148.75 60.6809C150.588 60.6809 152.001 60.0802 152.99 58.8789C154.015 57.6422 154.527 55.8579 154.527 53.5259V37.2549H161.311V65.5569H155.11L154.951 57.7659L155.799 58.0309C155.375 60.7162 154.368 62.7479 152.778 64.1259C151.188 65.5039 149.086 66.1929 146.471 66.1929ZM177.277 65.5569C174.451 65.5569 172.366 64.9032 171.023 63.5959C169.716 62.2886 169.062 60.2392 169.062 57.4479V30.6299H175.846V56.8119C175.846 58.1192 176.129 59.0379 176.694 59.5679C177.26 60.0626 178.143 60.3099 179.344 60.3099H183.319V65.5569H177.277ZM164.61 42.5019V37.2549H183.319V42.5019H164.61ZM198.535 66.1929C195.743 66.1929 193.288 65.5922 191.168 64.3909C189.083 63.1542 187.458 61.4229 186.292 59.1969C185.161 56.9709 184.596 54.3739 184.596 51.4059C184.596 48.4026 185.161 45.8055 186.292 43.6149C187.458 41.3889 189.083 39.6752 191.168 38.4739C193.288 37.2372 195.743 36.6189 198.535 36.6189C201.326 36.6189 203.764 37.2372 205.849 38.4739C207.933 39.6752 209.541 41.3889 210.672 43.6149C211.838 45.8055 212.421 48.4026 212.421 51.4059C212.421 54.3739 211.838 56.9709 210.672 59.1969C209.541 61.4229 207.933 63.1542 205.849 64.3909C203.764 65.5922 201.326 66.1929 198.535 66.1929ZM198.535 60.6809C200.725 60.6809 202.404 59.8682 203.57 58.2429C204.771 56.6176 205.372 54.3386 205.372 51.4059C205.372 48.5086 204.771 46.2472 203.57 44.6219C202.404 42.9612 200.725 42.1309 198.535 42.1309C196.344 42.1309 194.648 42.9612 193.447 44.6219C192.245 46.2472 191.645 48.5086 191.645 51.4059C191.645 54.3386 192.245 56.6176 193.447 58.2429C194.648 59.8682 196.344 60.6809 198.535 60.6809ZM213.363 65.5569L226.931 27.9269H235.358L248.926 65.5569H241.718L238.591 56.6529H223.698L220.571 65.5569H213.363ZM225.712 50.7699H236.577L231.171 34.8699L225.712 50.7699ZM251.34 65.5569V27.9269H258.23V65.5569H251.34Z" fill="black"/>
</svg>
